<?xml version="1.0" encoding="utf-8"?>
<!-- Generator: Adobe Illustrator 16.0.0, SVG Export Plug-In . SVG Version: 6.00 Build 0)  -->
<!DOCTYPE svg PUBLIC "-//W3C//DTD SVG 1.1//EN" "http://www.w3.org/Graphics/SVG/1.1/DTD/svg11.dtd">
<svg version="1.1" id="圖層_1" xmlns="http://www.w3.org/2000/svg" xmlns:xlink="http://www.w3.org/1999/xlink" x="0px" y="0px"
	 width="24px" height="24px" viewBox="0 0 24 24" enable-background="new 0 0 24 24" xml:space="preserve">
<path fill="#FFFFFF" d="M12,0C5.376,0,0,5.376,0,12c0,6.623,5.376,12,12,12c6.623,0,12-5.377,12-12C24,5.376,18.623,0,12,0z"/>
<g>
	<path fill="#F3731F" d="M12,3.153c2.49,0,4.5,2.01,4.5,4.5s-2.01,4.5-4.5,4.5s-4.5-2.009-4.5-4.5S9.51,3.153,12,3.153z"/>
	<path fill="#F3731F" d="M12,21.587c-3.125,0-5.888-1.601-7.5-4.024c0.037-2.488,5-3.851,7.5-3.851c2.488,0,7.464,1.362,7.5,3.851
		C17.887,19.986,15.125,21.587,12,21.587z"/>
</g>
</svg>
