<?xml version="1.0" encoding="utf-8"?>
<!-- Generator: Adobe Illustrator 16.0.0, SVG Export Plug-In . SVG Version: 6.00 Build 0)  -->
<!DOCTYPE svg PUBLIC "-//W3C//DTD SVG 1.1//EN" "http://www.w3.org/Graphics/SVG/1.1/DTD/svg11.dtd">
<svg version="1.1" id="圖層_1" xmlns="http://www.w3.org/2000/svg" xmlns:xlink="http://www.w3.org/1999/xlink" x="0px" y="0px"
	 width="82px" height="40px" viewBox="7.5 0 82 40" enable-background="new 7.5 0 82 40" xml:space="preserve">
<g>
	<g>
		<g>
			<path fill="#FFFFFF" d="M32.042,14.818c-0.6,0.345-1.259,0.697-1.952,1.072c-0.701,0.364-1.443,0.739-2.217,1.11
				c-0.772,0.379-1.588,0.728-2.413,1.087c-0.831,0.35-1.678,0.692-2.541,0.991c-0.856,0.319-1.726,0.603-2.587,0.854
				c-0.429,0.129-0.863,0.236-1.286,0.36c-0.426,0.116-0.85,0.211-1.264,0.313c-0.418,0.092-0.831,0.179-1.233,0.264
				c-0.403,0.08-0.802,0.145-1.189,0.216c-0.776,0.112-1.513,0.226-2.198,0.288c-0.342,0.041-0.67,0.068-0.982,0.086
				c-0.315,0.023-0.612,0.042-0.892,0.064c-0.561,0.017-1.051,0.031-1.455,0.043c-0.807-0.008-1.274-0.002-1.274-0.002
				S9.015,21.65,9.82,21.78c0.403,0.053,0.897,0.103,1.464,0.153c0.566,0.02,1.21,0.08,1.911,0.053
				c0.704,0.006,1.464-0.037,2.266-0.109c0.401-0.044,0.814-0.085,1.233-0.141c0.088-0.012,0.181-0.029,0.27-0.041l4.066,3.81
				l1.181-5.062c0.358-0.115,0.717-0.23,1.072-0.358c0.087-0.03,0.171-0.067,0.258-0.101l2.762,2.59l0.982-4.213
				c0.342-0.17,0.682-0.346,1.013-0.521c0.371-0.192,0.73-0.393,1.079-0.596l3.056,1.556l-0.18-3.381
				c0.039-0.027,0.079-0.055,0.118-0.082c1.147-0.801,2.05-1.538,2.666-2.07c0.615-0.533,0.941-0.867,0.941-0.867
				S34.442,13.452,32.042,14.818z"/>
			<path fill="#FFFFFF" d="M58.952,21.568c-0.404-0.014-0.895-0.028-1.453-0.045c-0.281-0.021-0.578-0.041-0.895-0.064
				c-0.311-0.018-0.639-0.045-0.98-0.086c-0.688-0.063-1.422-0.175-2.197-0.288c-0.387-0.071-0.785-0.137-1.189-0.216
				c-0.402-0.084-0.814-0.174-1.232-0.264c-0.416-0.102-0.84-0.197-1.264-0.312c-0.426-0.125-0.856-0.231-1.287-0.36
				c-0.861-0.254-1.731-0.535-2.584-0.857c-0.863-0.299-1.711-0.641-2.543-0.99c-0.825-0.359-1.64-0.708-2.413-1.087
				c-0.775-0.371-1.517-0.746-2.217-1.11c-0.694-0.375-1.354-0.728-1.953-1.07c-2.399-1.367-3.932-2.422-3.932-2.422
				s0.326,0.334,0.94,0.867c0.615,0.532,1.519,1.271,2.665,2.07c0.039,0.027,0.078,0.055,0.117,0.081l-0.179,3.382l3.056-1.556
				c0.35,0.204,0.707,0.405,1.079,0.597c0.33,0.174,0.669,0.35,1.013,0.521l0.98,4.211l2.764-2.59
				c0.086,0.033,0.17,0.069,0.258,0.101c0.354,0.129,0.714,0.246,1.07,0.36l1.18,5.061l4.066-3.813
				c0.092,0.014,0.186,0.031,0.271,0.043c0.42,0.057,0.832,0.098,1.232,0.142c0.803,0.071,1.563,0.115,2.266,0.11
				c0.701,0.025,1.346-0.034,1.91-0.053c0.568-0.055,1.061-0.102,1.467-0.154c0.805-0.131,1.258-0.215,1.258-0.215
				S59.759,21.559,58.952,21.568z"/>
			<path fill="#FFFFFF" d="M41.894,8.539l-3.396-4.49c0.121-0.611,0.15-1.007,0.15-1.007L38.549,3c0,0-0.494,0.565-1.028,1.501
				c-0.136,0.232-0.274,0.488-0.412,0.762c-0.145,0.271-0.277,0.566-0.404,0.874c-0.124,0.312-0.236,0.637-0.343,0.973
				c-0.111,0.334-0.225,0.671-0.337,1.009c-0.239,0.673-0.482,1.343-0.695,1.976c-0.221,0.633-0.415,1.225-0.585,1.734
				c-0.339,1.014-0.554,1.695-0.554,1.695l0.098,0.041c0,0,0.33-0.633,0.808-1.592c0.24-0.478,0.521-1.035,0.814-1.638
				c0.176-0.356,0.357-0.733,0.538-1.115L41.894,8.539z"/>
		</g>
		<path fill="#FFFFFF" d="M29.276,36.859c0.001,0-0.091-0.469-0.18-1.285C29.053,35.166,29,34.668,28.963,34.1
			c-0.044-0.572-0.071-1.214-0.092-1.916c-0.016-0.701-0.044-1.461,0.007-2.266c0.025-0.861,0.31-1.775,0.806-2.552
			c0.497-0.78,1.168-1.458,1.97-1.97c0.805-0.502,1.749-0.828,2.738-0.9c0.986-0.072,2.022,0.138,2.895,0.643
			c0.874,0.498,1.595,1.243,2.067,2.092c0.481,0.846,0.685,1.814,0.667,2.688c-0.01,0.805-0.046,1.563-0.081,2.266
			c-0.036,0.702-0.075,1.344-0.125,1.916c-0.042,0.567-0.095,1.064-0.14,1.475c-0.09,0.816-0.168,1.285-0.168,1.285h-0.108
			c0,0-0.079-0.469-0.169-1.285c-0.044-0.408-0.097-0.906-0.141-1.475c-0.049-0.572-0.089-1.214-0.125-1.916
			c-0.033-0.701-0.072-1.461-0.08-2.266c0.003-0.73-0.159-1.468-0.501-2.175c-0.349-0.697-0.889-1.343-1.585-1.81
			c-0.693-0.463-1.521-0.781-2.406-0.854c-0.883-0.074-1.803,0.132-2.563,0.598c-0.771,0.454-1.36,1.165-1.682,1.932
			c-0.327,0.773-0.409,1.566-0.364,2.309c0.052,0.803,0.022,1.563,0.008,2.266c-0.021,0.701-0.048,1.344-0.094,1.914
			c-0.035,0.569-0.088,1.066-0.133,1.476c-0.088,0.817-0.182,1.286-0.18,1.286H29.276L29.276,36.859z"/>
	</g>
	<g>
		<path fill="#FFFFFF" d="M52.353,28.009l0.615,0.115c0.08,0.005,0.121,0.049,0.121,0.124c0,0.07-0.049,0.163-0.146,0.277
			c-0.045,0.479-0.092,0.943-0.143,1.386h1.303c-0.063,1.676-0.178,2.927-0.346,3.745c-0.035,0.148-0.072,0.289-0.107,0.424
			c0.279,0.294,0.543,0.628,0.789,1l-0.475,0.652c-0.215-0.334-0.414-0.616-0.594-0.848c-0.117,0.277-0.244,0.514-0.383,0.713
			c-0.252,0.397-0.641,0.813-1.156,1.248l-0.494-0.662c0.471-0.332,0.822-0.658,1.051-0.979c0.195-0.242,0.359-0.533,0.492-0.865
			c-0.229-0.222-0.486-0.421-0.762-0.595c-0.063,0.211-0.125,0.425-0.195,0.642l-0.557-0.334c0.256-0.771,0.441-1.478,0.557-2.125
			c0.072-0.359,0.139-0.764,0.195-1.212h-0.701v-0.805h0.789C52.259,29.339,52.308,28.707,52.353,28.009z M53.128,33.589
			c0.166-0.685,0.287-1.646,0.363-2.873h-0.783c-0.057,0.448-0.121,0.88-0.188,1.288c-0.061,0.34-0.135,0.68-0.219,1.02
			C52.603,33.189,52.878,33.377,53.128,33.589z M57.032,28.632c0.055,0,0.111,0.028,0.164,0.086l0.336,0.339
			c0.039,0.043,0.061,0.088,0.061,0.133c0,0.082-0.047,0.166-0.141,0.25l-1.316,1.91v1.061h1.43v0.806h-1.43v2.604
			c0,0.402-0.092,0.699-0.275,0.892C55.716,36.902,55.333,37,54.72,37l-0.256-0.904h0.678c0.234,0,0.361-0.152,0.381-0.461v-2.42
			h-1.43v-0.806h1.43v-1.675l0.238,0.041l0.75-1.271h-2.15v-0.768h2.496L57.032,28.632z"/>
		<path fill="#FFFFFF" d="M62.503,32.004l0.428,0.229c0.076,0.014,0.115,0.061,0.115,0.137c0,0.051-0.031,0.09-0.088,0.115
			c-0.027,0.091-0.053,0.18-0.074,0.27h0.395c0.043-0.039,0.082-0.059,0.113-0.059l0.076,0.078l0.207,0.354
			c0.027,0.071,0.039,0.128,0.039,0.164c0,0.051-0.053,0.115-0.152,0.193c-0.166,0.781-0.322,1.341-0.469,1.682
			c-0.117,0.316-0.258,0.613-0.428,0.881c-0.17,0.281-0.408,0.587-0.717,0.914l-0.373-0.577c0.396-0.397,0.682-0.763,0.855-1.096
			c0.041-0.075,0.076-0.155,0.113-0.239c-0.129-0.16-0.262-0.314-0.395-0.462c-0.09,0.175-0.184,0.337-0.279,0.491l-0.428-0.491
			c0.289-0.446,0.508-0.86,0.656-1.237C62.241,32.99,62.374,32.543,62.503,32.004z M62.458,28.314c0.23,0.275,0.455,0.607,0.668,1
			l-0.242,0.326h0.443v-1.673l0.525,0.068c0.1,0.006,0.148,0.043,0.148,0.114c0,0.043-0.039,0.11-0.115,0.203v1.285h0.541
			l-0.258-0.171l0.459-1.155l0.389,0.278c0.059,0.039,0.088,0.079,0.088,0.114c0,0.066-0.037,0.121-0.107,0.166l-0.375,0.768h0.773
			v0.73h-1.281c0.107,0.179,0.227,0.333,0.359,0.461c0.25,0.244,0.574,0.463,0.977,0.654l-0.494,0.557
			c-0.291-0.18-0.539-0.387-0.75-0.623c-0.111-0.122-0.219-0.264-0.32-0.423v1.124h-0.559v-1.098
			c-0.082,0.123-0.164,0.224-0.244,0.307c-0.234,0.271-0.551,0.547-0.947,0.829l-0.455-0.587c0.408-0.219,0.76-0.455,1.049-0.709
			c0.133-0.11,0.281-0.273,0.441-0.492h-1.463v-0.73h0.957c-0.188-0.346-0.373-0.632-0.557-0.854L62.458,28.314z M62.444,33.973
			c0.137,0.137,0.262,0.273,0.365,0.412c0.086-0.262,0.172-0.587,0.262-0.979h-0.398c-0.074,0.185-0.139,0.353-0.197,0.5
			C62.466,33.938,62.456,33.96,62.444,33.973z M65.558,32.869v0.73h-0.494v1.383h0.604v0.729h-0.604v1.171h-0.508v-1.171h-1.189
			v-0.729h0.402v-2.113h0.789v-0.674l0.48,0.059c0.092,0,0.135,0.035,0.135,0.105c0,0.039-0.037,0.1-0.109,0.184v0.326H65.558z
			 M64.556,34.982V33.6h-0.307v1.383H64.556L64.556,34.982z M67.321,28.343l0.521,0.597l-0.602,2.576
			c0.426,0.84,0.635,1.607,0.635,2.305c0,0.591-0.105,1.062-0.32,1.412c-0.209,0.332-0.479,0.5-0.814,0.5l-0.25-0.855
			c0.336-0.075,0.553-0.211,0.648-0.404c0.094-0.171,0.139-0.421,0.139-0.75c0-0.535-0.213-1.242-0.646-2.111l0.494-2.372h-0.77
			v7.685h-0.586v-8.453h1.463C67.276,28.386,67.306,28.343,67.321,28.343z"/>
		<path fill="#FFFFFF" d="M74.647,27.969l0.607,0.075c0.105,0.009,0.162,0.054,0.162,0.136c0,0.051-0.043,0.129-0.129,0.229v0.944
			h2.754V30.2h-6.123v-0.847h2.729V27.969L74.647,27.969L74.647,27.969z M72.833,31.465h1.816v-1.037l0.607,0.077
			c0.104,0.009,0.16,0.052,0.16,0.136c0,0.051-0.043,0.127-0.127,0.229v0.595h2.246v3.682c0,0.461-0.188,0.76-0.557,0.894
			c-0.293,0.103-0.582,0.155-0.867,0.155l-0.262-0.934l0.73-0.02c0.209-0.012,0.313-0.143,0.313-0.395v-2.537H75.29v4.573h-0.641
			v-4.573h-1.498v4.034h-0.643v-4.881L72.833,31.465L72.833,31.465z"/>
		<path fill="#FFFFFF" d="M83.776,27.93l0.475,0.262c0.084,0.019,0.129,0.067,0.129,0.143c0,0.059-0.031,0.1-0.096,0.125
			c-0.07,0.166-0.137,0.316-0.193,0.452h1.271l0.191-0.902l0.473,0.189c0.061,0.02,0.09,0.052,0.09,0.097
			c0,0.053-0.033,0.105-0.102,0.164l-0.113,0.452h1.98v0.729H85.81v0.635h1.857v0.689H85.81v0.579h1.857v0.69H85.81v0.539h2.15
			v0.768h-2.15V34.1h2.551v0.73h-2.133c0.365,0.305,0.684,0.525,0.951,0.662c0.295,0.166,0.715,0.316,1.262,0.451l-0.492,0.834
			c-0.48-0.217-0.918-0.457-1.311-0.719c-0.285-0.207-0.563-0.442-0.83-0.711V37h-0.613v-1.604
			c-0.316,0.295-0.635,0.545-0.957,0.748c-0.379,0.232-0.834,0.428-1.367,0.586l-0.523-0.75c0.646-0.17,1.207-0.373,1.686-0.604
			c0.268-0.128,0.551-0.311,0.855-0.546h-2.459V34.1h2.768v-0.558h-2.02v-3.045c-0.176,0.242-0.365,0.478-0.568,0.7l-0.473-0.536
			c0.447-0.476,0.785-0.91,1.016-1.308C83.372,28.973,83.583,28.502,83.776,27.93z M85.194,30.275v-0.635h-1.43v0.635H85.194
			L85.194,30.275z M85.194,31.543v-0.578h-1.43v0.578H85.194z M85.194,32.771v-0.537h-1.43v0.537H85.194z"/>
	</g>
</g>
</svg>
